<svg xmlns="http://www.w3.org/2000/svg" viewBox="0 0 400 200" width="100%">
  <defs>
    <linearGradient id="bg_a" x1="0%" y1="0%" x2="100%" y2="100%">
      <stop offset="0%" stop-color="#090d16"/>
      <stop offset="100%" stop-color="#111827"/>
    </linearGradient>
    <style>
      .p-title { font-family: 'Outfit', sans-serif; font-size: 18px; font-weight: 700; fill: #ffffff; }
      .p-desc { font-family: 'Inter', sans-serif; font-size: 13px; fill: #94a3b8; }
      .p-tag { font-family: 'Fira Code', monospace; font-size: 11px; fill: #a78bfa; font-weight: 600; }
      .p-tag-bg { fill: #4c1d95; fill-opacity: 0.3; stroke: #7c3aed; stroke-width: 0.5; }
    </style>
  </defs>
  <rect width="400" height="200" rx="14" fill="url(#bg_a)" stroke="#1e293b" stroke-width="1.5"/>
  <rect x="0" y="0" width="400" height="6" rx="3" fill="#a78bfa"/>
  <g transform="translate(25, 35)">
    <rect width="36" height="36" rx="8" fill="#a78bfa" fill-opacity="0.1" stroke="#a78bfa" stroke-width="1"/>
    <path d="M13 18 L18 13 L23 18 M18 13 L18 27 M13 23 L23 23" stroke="#a78bfa" stroke-width="2" fill="none" stroke-linecap="round" stroke-linejoin="round"/>
    
    <text x="50" y="24" class="p-title">AthleteX</text>
    
    <text x="0" y="70" class="p-desc">University Sports Management System</text>
    <text x="0" y="90" class="p-desc">managing rosters, athletic events and stats.</text>
    
    <g transform="translate(0, 115)">
      <rect width="55" height="22" rx="4" class="p-tag-bg"/>
      <text x="10" y="15" class="p-tag">React</text>
      
      <g transform="translate(63, 0)">
        <rect width="55" height="22" rx="4" class="p-tag-bg"/>
        <text x="10" y="15" class="p-tag">Node</text>
      </g>
      
      <g transform="translate(126, 0)">
        <rect width="70" height="22" rx="4" class="p-tag-bg"/>
        <text x="10" y="15" class="p-tag">Express</text>
      </g>
      
      <g transform="translate(204, 0)">
        <rect width="60" height="22" rx="4" fill="#1e3a8a" fill-opacity="0.3" stroke="#2563eb" stroke-width="0.5"/>
        <text x="10" y="15" class="p-tag" fill="#60a5fa">MySQL</text>
      </g>
    </g>
    
    <g transform="translate(0, 148)">
      <text x="0" y="12" font-family="'Inter', sans-serif" font-size="11" fill="#f43f5e" font-weight="600">🛠️ Under Maintenance</text>
    </g>
  </g>
  <path d="M365 30 L375 40 M375 40 L365 50 M375 40 L355 40" stroke="#94a3b8" stroke-width="1.5" fill="none" stroke-linecap="round" stroke-linejoin="round"/>
</svg>